<?xml version="1.0" encoding="utf-8"?>
<!-- Generator: Adobe Illustrator 23.1.1, SVG Export Plug-In . SVG Version: 6.00 Build 0)  -->
<svg version="1.1" id="Layer_1" xmlns="http://www.w3.org/2000/svg" xmlns:xlink="http://www.w3.org/1999/xlink" x="0px" y="0px"
	 viewBox="0 0 1306 735" enable-background="new 0 0 1306 735" xml:space="preserve">
<g>
	<path fill="#008BE9" d="M481.98,164.99c-1.27-0.57-1.91-2-1.5-3.33c0.03-0.1,0.05-0.2,0.06-0.31c0.05-0.76-0.52-1.41-1.28-1.46
		c0,0-0.01,0-0.01,0c-0.47-0.03-0.92,0.18-1.19,0.55c-0.06,0.08-0.11,0.17-0.15,0.27c-0.57,1.27-2,1.91-3.33,1.5
		c-0.1-0.03-0.2-0.05-0.31-0.06c-0.76-0.05-1.41,0.52-1.46,1.28c0,0,0,0.01,0,0.01c-0.03,0.47,0.18,0.92,0.55,1.19
		c0.08,0.06,0.17,0.11,0.27,0.15c1.27,0.57,1.91,2,1.5,3.33c-0.03,0.1-0.05,0.2-0.06,0.31c-0.05,0.76,0.52,1.41,1.28,1.46
		c0,0,0.01,0,0.01,0c0.47,0.03,0.92-0.18,1.19-0.55c0.06-0.08,0.11-0.17,0.15-0.27c0.57-1.27,2-1.91,3.33-1.5
		c0.1,0.03,0.2,0.05,0.31,0.06c0.76,0.05,1.41-0.52,1.46-1.28c0,0,0-0.01,0-0.01c0.03-0.46-0.18-0.91-0.55-1.19
		C482.17,165.07,482.08,165.02,481.98,164.99z M446.46,458.99c-1.27-0.57-1.91-2-1.5-3.33c0.03-0.1,0.05-0.2,0.06-0.31
		c0.05-0.76-0.52-1.41-1.28-1.46c0,0-0.01,0-0.01,0c-0.46-0.03-0.91,0.18-1.19,0.55c-0.06,0.08-0.11,0.17-0.15,0.27
		c-0.57,1.27-2,1.91-3.33,1.5c-0.1-0.03-0.2-0.05-0.31-0.06c-0.76-0.05-1.41,0.52-1.46,1.28c0,0,0,0.01,0,0.01
		c-0.03,0.46,0.18,0.92,0.55,1.19c0.08,0.06,0.17,0.11,0.27,0.15c1.27,0.57,1.91,2,1.5,3.33c-0.03,0.1-0.05,0.2-0.06,0.31
		c-0.05,0.76,0.52,1.41,1.28,1.46c0,0,0.01,0,0.01,0c0.47,0.03,0.92-0.18,1.19-0.55c0.06-0.08,0.11-0.17,0.15-0.27
		c0.57-1.27,2-1.91,3.33-1.5c0.1,0.03,0.2,0.05,0.31,0.06c0.76,0.05,1.41-0.52,1.46-1.28c0,0,0-0.01,0-0.01
		c0.03-0.46-0.18-0.91-0.55-1.19C446.65,459.07,446.55,459.02,446.46,458.99L446.46,458.99z M470.46,517.99
		c-1.27-0.57-1.91-2-1.5-3.33c0.03-0.1,0.05-0.2,0.06-0.31c0.05-0.76-0.52-1.41-1.28-1.46c0,0-0.01,0-0.01,0
		c-0.46-0.03-0.91,0.18-1.19,0.55c-0.06,0.08-0.11,0.17-0.15,0.27c-0.57,1.27-2,1.91-3.33,1.5c-0.1-0.03-0.2-0.05-0.31-0.06
		c-0.76-0.05-1.41,0.52-1.46,1.28c0,0,0,0.01,0,0.01c-0.03,0.47,0.18,0.92,0.55,1.19c0.08,0.06,0.17,0.11,0.27,0.15
		c1.27,0.57,1.91,2,1.5,3.33c-0.03,0.1-0.05,0.2-0.06,0.31c-0.05,0.76,0.52,1.41,1.28,1.46c0,0,0.01,0,0.01,0
		c0.47,0.03,0.92-0.18,1.19-0.55c0.06-0.08,0.11-0.17,0.15-0.27c0.57-1.27,2-1.91,3.33-1.5c0.1,0.03,0.2,0.05,0.31,0.06
		c0.76,0.05,1.41-0.52,1.46-1.28c0,0,0-0.01,0-0.01c0.03-0.46-0.18-0.91-0.55-1.19C470.65,518.07,470.55,518.02,470.46,517.99
		L470.46,517.99z M455.62,210.07c-2.56-1.11-3.88-3.98-3.05-6.64c0.06-0.2,0.1-0.4,0.12-0.61c0.1-1.51-1.03-2.82-2.54-2.93
		c-1.16-0.08-2.25,0.58-2.71,1.65c-1.11,2.55-3.96,3.86-6.62,3.05c-0.2-0.06-0.4-0.1-0.61-0.12c-1.51-0.1-2.82,1.03-2.93,2.54
		c-0.08,1.16,0.58,2.25,1.65,2.71c2.55,1.11,3.86,3.96,3.05,6.61c-0.06,0.2-0.1,0.4-0.12,0.61c-0.1,1.51,1.03,2.82,2.54,2.93
		c1.16,0.08,2.25-0.58,2.71-1.65c1.11-2.55,3.96-3.86,6.62-3.05c0.2,0.06,0.4,0.11,0.61,0.12c1.51,0.1,2.82-1.03,2.93-2.54
		c0.07-0.94-0.35-1.85-1.12-2.41C455.99,210.23,455.81,210.14,455.62,210.07L455.62,210.07z M866.08,315.33
		c-2.67,0.54-5.33-1.01-6.17-3.6c-0.06-0.19-0.14-0.38-0.24-0.55c-0.77-1.27-2.42-1.67-3.69-0.9c0,0,0,0-0.01,0
		c-0.77,0.47-1.26,1.3-1.29,2.21c-0.01,0.2,0.01,0.4,0.05,0.6c0.54,2.67-1.01,5.33-3.6,6.17c-0.19,0.06-0.38,0.14-0.55,0.24
		c-1.27,0.77-1.67,2.42-0.9,3.69c0,0,0,0,0,0.01c0.47,0.77,1.3,1.26,2.21,1.29c0.2,0.01,0.4-0.01,0.6-0.06
		c2.67-0.54,5.33,1.01,6.17,3.6c0.05,0.2,0.14,0.38,0.24,0.55c0.77,1.27,2.42,1.67,3.69,0.9c0,0,0,0,0.01,0
		c0.77-0.47,1.26-1.3,1.29-2.21c0.01-0.2-0.01-0.4-0.05-0.6c-0.54-2.67,1.01-5.33,3.6-6.17c0.19-0.06,0.38-0.14,0.55-0.24
		c1.27-0.77,1.67-2.42,0.9-3.69c0,0,0,0,0-0.01c-0.47-0.77-1.3-1.26-2.21-1.29C866.48,315.27,866.28,315.28,866.08,315.33z
		 M831.11,371.99c-1.27-0.57-1.91-2-1.5-3.33c0.03-0.1,0.05-0.2,0.06-0.31c0.05-0.76-0.52-1.41-1.28-1.46c0,0-0.01,0-0.01,0
		c-0.47-0.03-0.92,0.18-1.19,0.55c-0.06,0.08-0.11,0.17-0.15,0.27c-0.57,1.27-2,1.91-3.33,1.5c-0.1-0.03-0.2-0.05-0.31-0.06
		c-0.76-0.05-1.41,0.52-1.46,1.28c0,0,0,0.01,0,0.01c-0.03,0.46,0.18,0.91,0.55,1.19c0.08,0.06,0.17,0.11,0.27,0.15
		c1.27,0.57,1.91,2,1.5,3.33c-0.03,0.1-0.05,0.2-0.06,0.31c-0.05,0.76,0.52,1.41,1.28,1.46c0,0,0.01,0,0.01,0
		c0.47,0.03,0.92-0.18,1.19-0.55c0.06-0.08,0.11-0.17,0.15-0.27c0.57-1.27,2-1.91,3.33-1.5c0.1,0.03,0.2,0.05,0.31,0.06
		c0.76,0.05,1.41-0.52,1.46-1.28c0,0,0-0.01,0-0.01c0.03-0.46-0.18-0.92-0.55-1.19C831.3,372.07,831.2,372.02,831.11,371.99z"/>
	<path fill="#718096" d="M525.28,140.88h256c8.84,0,16,7.16,16,16v424c0,8.84-7.16,16-16,16h-256c-8.84,0-16-7.16-16-16v-424
		C509.28,148.04,516.44,140.88,525.28,140.88z"/>
	<path fill="#FFFFFF" d="M515.28,130.88h276c8.84,0,16,7.16,16,16v424c0,8.84-7.16,16-16,16h-276c-8.84,0-16-7.16-16-16v-424
		C499.28,138.04,506.44,130.88,515.28,130.88z"/>
	<path opacity="0.5" fill="#ECEAFF" enable-background="new    " d="M529.28,232.88h248c3.31,0,6,2.69,6,6v318c0,3.31-2.69,6-6,6
		h-248c-3.31,0-6-2.69-6-6v-318C523.28,235.57,525.97,232.88,529.28,232.88z"/>
	<path fill="#FFFFFF" d="M523.28,344.88h260v38h-260V344.88z"/>
	<path opacity="0.5" fill="#0053B1" enable-background="new    " d="M523.28,344.88h260v38h-260V344.88z"/>
	<path fill-rule="evenodd" clip-rule="evenodd" fill="#0052AD" d="M759.28,357.96c-3.27,0-5.92,2.65-5.92,5.92
		c0,3.27,2.65,5.92,5.92,5.92c0,0,0,0,0,0c3.27,0,5.92-2.65,5.92-5.92C765.2,360.61,762.55,357.96,759.28,357.96z M751.86,363.88
		c0-4.1,3.32-7.42,7.42-7.42s7.42,3.32,7.42,7.42c0,4.1-3.32,7.42-7.42,7.42S751.86,367.98,751.86,363.88L751.86,363.88z"/>
	<path fill-rule="evenodd" clip-rule="evenodd" fill="#0052AD" d="M759.28,359.13c0.41,0,0.75,0.34,0.75,0.75v3.54l2.25,1.13
		c0.37,0.19,0.5,0.65,0.31,1.01c-0.19,0.35-0.62,0.5-0.98,0.33l-2.67-1.33c-0.25-0.13-0.42-0.39-0.42-0.67v-4
		C758.53,359.47,758.87,359.13,759.28,359.13L759.28,359.13z"/>
	<path opacity="0.5" fill="#0052AD" enable-background="new    " d="M555.31,253.15v8.73h-1.41l-4.11-5.94h-0.07v5.94h-1.58v-8.73
		h1.42l4.11,5.95h0.08v-5.95H555.31z M565.33,257.52c0,0.94-0.18,1.75-0.53,2.42c-0.35,0.67-0.83,1.18-1.43,1.54
		c-0.6,0.36-1.28,0.53-2.05,0.53c-0.77,0-1.45-0.18-2.05-0.53c-0.6-0.36-1.08-0.87-1.43-1.54c-0.35-0.67-0.52-1.47-0.52-2.41
		c0-0.94,0.17-1.74,0.52-2.41c0.35-0.67,0.83-1.18,1.43-1.54c0.6-0.35,1.29-0.53,2.05-0.53c0.76,0,1.45,0.18,2.05,0.53
		c0.61,0.35,1.08,0.87,1.43,1.54C565.16,255.77,565.33,256.58,565.33,257.52z M563.74,257.52c0-0.66-0.1-1.22-0.31-1.67
		c-0.2-0.46-0.49-0.8-0.85-1.04c-0.38-0.24-0.81-0.36-1.26-0.35c-0.48,0-0.89,0.12-1.26,0.35c-0.36,0.23-0.65,0.58-0.86,1.04
		c-0.2,0.45-0.31,1.01-0.31,1.67c0,0.66,0.1,1.22,0.31,1.68c0.21,0.46,0.49,0.8,0.86,1.04c0.36,0.23,0.78,0.35,1.26,0.35
		c0.44,0.01,0.88-0.11,1.26-0.35c0.36-0.24,0.65-0.58,0.85-1.04C563.64,258.74,563.74,258.18,563.74,257.52z M574.5,253.15v8.73
		h-1.41l-4.11-5.94h-0.07v5.94h-1.58v-8.73h1.41l4.11,5.95h0.08v-5.95H574.5z M576.72,261.88v-8.73h5.68v1.32h-4.09v2.37h3.8v1.33
		h-3.8v2.38h4.13v1.32H576.72L576.72,261.88z M551.1,295.88h-2.96v-8.73h3.02c0.87,0,1.61,0.17,2.23,0.52
		c0.62,0.34,1.12,0.86,1.44,1.5c0.34,0.65,0.5,1.43,0.5,2.34c0,0.91-0.17,1.69-0.51,2.34c-0.32,0.64-0.83,1.16-1.45,1.5
		C552.74,295.71,551.98,295.88,551.1,295.88z M549.72,294.51h1.3c0.61,0,1.12-0.11,1.52-0.33c0.41-0.23,0.71-0.56,0.92-1
		c0.2-0.45,0.31-1,0.31-1.67c0-0.67-0.1-1.22-0.31-1.66c-0.19-0.42-0.5-0.77-0.91-0.99c-0.4-0.22-0.89-0.33-1.48-0.33h-1.35
		C549.72,288.52,549.72,294.51,549.72,294.51z M557.99,295.88h-1.69l3.07-8.73h1.95l3.08,8.73h-1.69l-2.33-6.94h-0.07
		C560.31,288.94,557.99,295.88,557.99,295.88z M558.04,292.46h4.6v1.27h-4.6V292.46z M567.63,287.15v8.73h-1.58v-8.73H567.63
		L567.63,287.15z M569.84,295.88v-8.73h1.58v7.4h3.84v1.32L569.84,295.88L569.84,295.88z M575.66,287.15h1.79l2.14,3.86h0.09
		l2.14-3.86h1.78l-3.17,5.47v3.26h-1.58v-3.26L575.66,287.15z M548.14,329.88v-8.73h1.58v3.69h4.04v-3.69h1.59v8.73h-1.59v-3.71
		h-4.04v3.71H548.14z M565.37,325.52c0,0.94-0.18,1.75-0.53,2.42c-0.35,0.67-0.83,1.18-1.43,1.54c-0.6,0.36-1.29,0.53-2.05,0.53
		s-1.45-0.18-2.05-0.53c-0.6-0.36-1.08-0.87-1.43-1.54c-0.35-0.67-0.52-1.47-0.52-2.41c0-0.94,0.17-1.74,0.52-2.41
		c0.35-0.67,0.83-1.18,1.43-1.54c0.61-0.35,1.29-0.53,2.05-0.53s1.45,0.18,2.05,0.53c0.61,0.36,1.08,0.87,1.43,1.54
		C565.19,323.77,565.37,324.58,565.37,325.52z M563.78,325.52c0-0.66-0.1-1.22-0.31-1.67c-0.2-0.46-0.49-0.8-0.85-1.04
		c-0.38-0.24-0.81-0.36-1.26-0.35c-0.47,0-0.89,0.12-1.26,0.35c-0.36,0.23-0.65,0.58-0.86,1.04c-0.2,0.45-0.31,1.01-0.31,1.67
		c0,0.66,0.1,1.22,0.31,1.68c0.21,0.46,0.49,0.8,0.86,1.04c0.36,0.23,0.78,0.35,1.26,0.35c0.44,0.01,0.88-0.11,1.26-0.35
		c0.36-0.24,0.65-0.58,0.85-1.04C563.68,326.74,563.78,326.18,563.78,325.52z M572.86,321.15h1.58v5.7c0,0.62-0.15,1.18-0.44,1.65
		c-0.3,0.48-0.73,0.87-1.24,1.11c-0.53,0.26-1.15,0.4-1.86,0.4c-0.71,0-1.34-0.13-1.87-0.4c-0.51-0.25-0.94-0.63-1.24-1.11
		c-0.29-0.47-0.44-1.02-0.44-1.65v-5.7h1.58v5.57c0,0.36,0.08,0.69,0.24,0.97c0.16,0.28,0.39,0.51,0.68,0.67
		c0.29,0.16,0.64,0.24,1.04,0.24c0.4,0,0.75-0.08,1.04-0.24c0.3-0.16,0.52-0.38,0.68-0.67c0.16-0.28,0.24-0.61,0.24-0.97
		L572.86,321.15L572.86,321.15z M576.66,329.88v-8.73h3.27c0.67,0,1.23,0.12,1.69,0.35c0.46,0.23,0.8,0.56,1.04,0.98
		c0.24,0.42,0.35,0.9,0.35,1.46c0,0.56-0.12,1.05-0.36,1.46c-0.24,0.42-0.61,0.75-1.04,0.95c-0.46,0.22-1.03,0.33-1.7,0.33h-2.33
		v-1.31h2.12c0.39,0,0.71-0.05,0.96-0.16c0.25-0.11,0.43-0.27,0.55-0.48c0.12-0.21,0.18-0.48,0.18-0.78c0-0.31-0.06-0.57-0.18-0.79
		c-0.13-0.22-0.32-0.4-0.56-0.5c-0.25-0.12-0.57-0.17-0.97-0.17h-1.45v7.41H576.66L576.66,329.88z M581.17,325.93l2.16,3.95h-1.76
		l-2.12-3.95H581.17z M584.97,329.88v-8.73h1.58v7.4h3.84v1.33H584.97L584.97,329.88z M590.79,321.15h1.79l2.14,3.86h0.09l2.14-3.86
		h1.78l-3.17,5.47v3.26h-1.58v-3.26L590.79,321.15L590.79,321.15z"/>
	<path fill="#0052AD" d="M548.14,367.88v-8.73h5.68v1.32h-4.1v2.37h3.8v1.33h-3.8v2.38h4.13v1.32H548.14z M557.1,359.15l2.27,6.87
		h0.09l2.27-6.87h1.74l-3.08,8.73h-1.95l-3.07-8.73C555.36,359.15,557.1,359.15,557.1,359.15z M565.11,367.88v-8.73h5.68v1.32h-4.1
		v2.37h3.8v1.33h-3.8v2.38h4.13v1.32C570.82,367.88,565.11,367.88,565.11,367.88z M572.9,367.88v-8.73h3.27
		c0.67,0,1.23,0.12,1.69,0.35c0.46,0.23,0.8,0.56,1.03,0.98c0.24,0.42,0.35,0.9,0.35,1.46c0,0.56-0.12,1.05-0.36,1.46
		c-0.24,0.42-0.61,0.75-1.04,0.95c-0.46,0.22-1.03,0.33-1.7,0.33h-2.33v-1.31h2.12c0.39,0,0.71-0.05,0.96-0.16
		c0.25-0.11,0.43-0.27,0.55-0.48c0.12-0.21,0.18-0.48,0.18-0.78c0-0.31-0.06-0.57-0.18-0.79c-0.13-0.22-0.32-0.4-0.56-0.5
		c-0.25-0.12-0.57-0.17-0.97-0.17h-1.45v7.41H572.9z M577.41,363.93l2.16,3.95h-1.77l-2.12-3.95H577.41z M580.61,359.15h1.78
		l2.14,3.86h0.09l2.13-3.86h1.79l-3.17,5.47v3.26h-1.58v-3.26L580.61,359.15L580.61,359.15z M596.68,368c-0.61,0-1.16-0.1-1.64-0.32
		c-0.45-0.19-0.83-0.49-1.12-0.88c-0.28-0.38-0.43-0.83-0.44-1.3h1.6c0.01,0.24,0.09,0.44,0.23,0.62c0.15,0.18,0.35,0.32,0.57,0.4
		c0.24,0.1,0.5,0.14,0.79,0.14c0.31,0,0.59-0.05,0.83-0.16c0.24-0.11,0.43-0.26,0.57-0.46c0.14-0.2,0.2-0.42,0.2-0.68
		c0.01-0.25-0.07-0.49-0.21-0.7c-0.15-0.21-0.36-0.38-0.6-0.47c-0.26-0.11-0.58-0.17-0.95-0.17h-0.77v-1.22h0.77
		c0.3,0,0.57-0.05,0.8-0.16c0.23-0.1,0.41-0.25,0.54-0.44c0.13-0.19,0.2-0.42,0.19-0.67c0.01-0.23-0.05-0.45-0.17-0.64
		c-0.11-0.19-0.28-0.34-0.47-0.43c-0.22-0.11-0.47-0.16-0.71-0.15c-0.27,0-0.51,0.05-0.74,0.14c-0.23,0.1-0.41,0.23-0.55,0.41
		c-0.14,0.18-0.22,0.4-0.22,0.63h-1.52c0-0.46,0.15-0.91,0.42-1.29c0.28-0.38,0.66-0.68,1.09-0.87c0.48-0.22,1-0.32,1.53-0.32
		c0.58,0,1.09,0.11,1.52,0.33c0.41,0.19,0.75,0.5,1,0.87c0.24,0.37,0.35,0.77,0.35,1.21c0,0.49-0.14,0.9-0.43,1.24
		c-0.29,0.33-0.67,0.55-1.14,0.65v0.07c0.61,0.09,1.08,0.31,1.41,0.68c0.33,0.37,0.49,0.82,0.49,1.37c0,0.49-0.14,0.93-0.42,1.31
		c-0.28,0.38-0.66,0.68-1.14,0.9C597.86,367.89,597.3,368,596.68,368L596.68,368z M605.09,368.05c-0.7,0-1.3-0.18-1.81-0.53
		c-0.5-0.36-0.89-0.87-1.16-1.55c-0.27-0.68-0.4-1.49-0.4-2.44c0-0.95,0.14-1.76,0.4-2.43c0.27-0.67,0.65-1.18,1.15-1.53
		c0.5-0.35,1.1-0.53,1.8-0.53c0.7,0,1.3,0.18,1.8,0.53c0.5,0.35,0.89,0.86,1.15,1.53c0.27,0.67,0.41,1.48,0.41,2.43
		c0,0.95-0.14,1.77-0.41,2.45c-0.27,0.67-0.65,1.19-1.15,1.54C606.39,367.87,605.79,368.05,605.09,368.05z M605.09,366.71
		c0.54,0,0.98-0.27,1.29-0.8c0.32-0.54,0.48-1.33,0.48-2.38c0-0.69-0.07-1.28-0.22-1.75c-0.14-0.47-0.35-0.83-0.61-1.07
		c-0.25-0.24-0.59-0.37-0.94-0.36c-0.54,0-0.97,0.27-1.29,0.81c-0.32,0.54-0.47,1.33-0.48,2.37c0,0.7,0.07,1.28,0.21,1.76
		c0.15,0.48,0.35,0.83,0.61,1.07C604.41,366.59,604.73,366.71,605.09,366.71L605.09,366.71z M613.93,359.15h1.93l2.59,6.32h0.1
		l2.59-6.32h1.93v8.73h-1.52v-6h-0.08l-2.41,5.97h-1.13l-2.41-5.98h-0.08v6.01h-1.52V359.15L613.93,359.15z M626.89,359.15v8.73
		h-1.58v-8.73L626.89,359.15L626.89,359.15z M636.27,359.15v8.73h-1.41l-4.11-5.95h-0.07v5.95h-1.58v-8.73h1.41l4.11,5.95h0.08
		v-5.95L636.27,359.15L636.27,359.15z M643.23,361.55c-0.03-0.35-0.21-0.67-0.5-0.87c-0.29-0.21-0.67-0.31-1.14-0.31
		c-0.33,0-0.61,0.05-0.85,0.15c-0.21,0.08-0.4,0.22-0.54,0.4c-0.12,0.17-0.19,0.37-0.19,0.58c0,0.18,0.04,0.34,0.12,0.47
		c0.08,0.13,0.2,0.25,0.34,0.34c0.15,0.09,0.31,0.17,0.48,0.23c0.18,0.06,0.35,0.11,0.53,0.16l0.82,0.2
		c0.33,0.08,0.65,0.18,0.95,0.31c0.31,0.13,0.58,0.3,0.82,0.49c0.24,0.2,0.44,0.44,0.58,0.72c0.14,0.28,0.21,0.61,0.21,0.99
		c0,0.51-0.13,0.96-0.39,1.35c-0.26,0.39-0.64,0.69-1.13,0.91c-0.49,0.22-1.09,0.32-1.79,0.32c-0.68,0-1.27-0.11-1.77-0.32
		c-0.5-0.21-0.89-0.52-1.17-0.92c-0.28-0.4-0.43-0.89-0.45-1.47h1.55c0.02,0.3,0.12,0.56,0.28,0.76c0.16,0.2,0.38,0.35,0.64,0.45
		c0.27,0.1,0.57,0.15,0.89,0.15c0.34,0,0.65-0.05,0.9-0.15c0.24-0.09,0.45-0.24,0.61-0.43c0.15-0.19,0.22-0.41,0.23-0.66
		c0-0.21-0.07-0.41-0.2-0.56c-0.15-0.17-0.34-0.29-0.55-0.38c-0.26-0.11-0.54-0.2-0.82-0.27l-0.99-0.26
		c-0.72-0.18-1.29-0.46-1.7-0.84c-0.41-0.38-0.62-0.88-0.62-1.5c0-0.51,0.14-0.96,0.42-1.35c0.29-0.4,0.69-0.71,1.15-0.9
		c0.48-0.22,1.03-0.32,1.64-0.32c0.62,0,1.16,0.11,1.63,0.32c0.47,0.21,0.84,0.51,1.1,0.89c0.27,0.38,0.41,0.81,0.41,1.3H643.23
		L643.23,361.55z"/>
	<path opacity="0.5" fill="#0052AD" enable-background="new    " d="M548.14,405.88v-8.73h5.68v1.33h-4.1v2.37h3.8v1.33h-3.8v2.38
		h4.13v1.33H548.14z M557.1,397.15l2.27,6.87h0.09l2.27-6.87h1.74l-3.08,8.73h-1.95l-3.07-8.73
		C555.36,397.15,557.1,397.15,557.1,397.15z M565.11,405.88v-8.73h5.68v1.33h-4.1v2.37h3.8v1.33h-3.8v2.38h4.13v1.33
		C570.82,405.88,565.11,405.88,565.11,405.88z M572.9,405.88v-8.73h3.27c0.67,0,1.23,0.12,1.69,0.35c0.46,0.23,0.8,0.56,1.03,0.98
		c0.24,0.42,0.35,0.9,0.35,1.46c0,0.56-0.12,1.05-0.36,1.46c-0.24,0.42-0.61,0.75-1.04,0.95c-0.46,0.22-1.03,0.33-1.7,0.33h-2.33
		v-1.31h2.12c0.39,0,0.71-0.05,0.96-0.16c0.25-0.11,0.43-0.27,0.55-0.48c0.12-0.21,0.18-0.48,0.18-0.78c0-0.31-0.06-0.57-0.18-0.79
		c-0.13-0.22-0.32-0.4-0.56-0.5c-0.25-0.12-0.57-0.17-0.97-0.17h-1.45v7.41H572.9z M577.41,401.93l2.16,3.95h-1.77l-2.12-3.95
		H577.41z M580.61,397.15h1.78l2.14,3.86h0.09l2.13-3.86h1.79l-3.17,5.47v3.26h-1.58v-3.26L580.61,397.15L580.61,397.15z
		 M597.1,397.15v8.73h-1.58v-7.19h-0.05l-2.04,1.3v-1.45l2.17-1.39L597.1,397.15L597.1,397.15z M602.85,406
		c-0.57,0-1.08-0.11-1.52-0.32c-0.43-0.2-0.8-0.5-1.07-0.89c-0.26-0.38-0.41-0.83-0.42-1.29h1.53c0.03,0.36,0.18,0.65,0.46,0.88
		c0.28,0.23,0.62,0.34,1.01,0.34c0.29,0.01,0.58-0.07,0.83-0.21c0.24-0.14,0.43-0.34,0.57-0.59c0.14-0.27,0.21-0.56,0.21-0.86
		c0.01-0.31-0.06-0.61-0.21-0.88c-0.14-0.25-0.34-0.46-0.58-0.6c-0.26-0.15-0.55-0.23-0.85-0.22c-0.26,0-0.53,0.05-0.77,0.14
		c-0.25,0.1-0.45,0.23-0.6,0.39l-1.43-0.23l0.46-4.5h5.06v1.32h-3.76l-0.25,2.31h0.05c0.16-0.19,0.39-0.35,0.69-0.47
		c0.31-0.13,0.64-0.2,0.97-0.19c1-0.02,1.92,0.52,2.4,1.4c0.24,0.43,0.36,0.93,0.36,1.49c0,0.58-0.13,1.09-0.4,1.54
		c-0.26,0.45-0.65,0.82-1.1,1.06C604.01,405.87,603.46,406,602.85,406L602.85,406z M611.47,397.15h1.93l2.59,6.32h0.1l2.59-6.32
		h1.93v8.73h-1.52v-6h-0.08l-2.41,5.97h-1.13l-2.41-5.98h-0.08v6.01h-1.52V397.15L611.47,397.15z M624.42,397.15v8.73h-1.58v-8.73
		H624.42z M633.81,397.15v8.73h-1.41l-4.11-5.95h-0.07v5.95h-1.58v-8.73h1.41l4.11,5.95h0.08v-5.95H633.81L633.81,397.15z
		 M640.77,399.55c-0.03-0.35-0.21-0.67-0.5-0.87c-0.29-0.21-0.67-0.31-1.14-0.31c-0.33,0-0.61,0.05-0.85,0.15
		c-0.21,0.08-0.4,0.22-0.54,0.4c-0.12,0.17-0.19,0.37-0.19,0.58c0,0.18,0.04,0.34,0.12,0.47c0.09,0.13,0.2,0.25,0.35,0.34
		c0.15,0.09,0.31,0.17,0.48,0.23c0.18,0.06,0.35,0.11,0.53,0.16l0.82,0.2c0.33,0.08,0.65,0.18,0.95,0.31
		c0.31,0.13,0.58,0.3,0.82,0.49c0.24,0.2,0.44,0.44,0.58,0.72c0.14,0.28,0.21,0.61,0.21,0.99c0,0.51-0.13,0.96-0.39,1.35
		c-0.26,0.39-0.64,0.69-1.13,0.91c-0.49,0.22-1.09,0.32-1.79,0.32c-0.68,0-1.27-0.11-1.77-0.32c-0.5-0.21-0.89-0.52-1.17-0.92
		c-0.28-0.4-0.43-0.89-0.45-1.47h1.55c0.02,0.3,0.12,0.56,0.28,0.76c0.17,0.2,0.38,0.35,0.64,0.45c0.27,0.1,0.57,0.15,0.9,0.15
		c0.34,0,0.65-0.05,0.9-0.15c0.26-0.11,0.47-0.25,0.61-0.43c0.15-0.19,0.22-0.41,0.23-0.66c0-0.21-0.07-0.41-0.2-0.56
		c-0.15-0.17-0.34-0.29-0.55-0.38c-0.26-0.11-0.54-0.2-0.82-0.27l-0.99-0.26c-0.72-0.18-1.29-0.46-1.7-0.84
		c-0.41-0.38-0.62-0.88-0.62-1.5c0-0.51,0.14-0.96,0.42-1.35c0.29-0.4,0.69-0.71,1.15-0.9c0.48-0.22,1.03-0.32,1.64-0.32
		c0.62,0,1.16,0.11,1.63,0.32c0.47,0.21,0.84,0.51,1.1,0.89c0.27,0.38,0.41,0.81,0.41,1.3L640.77,399.55L640.77,399.55z
		 M548.14,439.88v-8.73h5.68v1.33h-4.1v2.37h3.8v1.33h-3.8v2.38h4.13v1.33H548.14z M557.1,431.15l2.27,6.87h0.09l2.27-6.87h1.74
		l-3.08,8.73h-1.95l-3.07-8.73C555.36,431.15,557.1,431.15,557.1,431.15z M565.11,439.88v-8.73h5.68v1.33h-4.1v2.37h3.8v1.33h-3.8
		v2.38h4.13v1.33C570.82,439.88,565.11,439.88,565.11,439.88z M572.9,439.88v-8.73h3.27c0.67,0,1.23,0.12,1.69,0.35
		c0.46,0.23,0.8,0.56,1.03,0.98c0.24,0.42,0.35,0.9,0.35,1.46c0,0.56-0.12,1.05-0.36,1.46c-0.24,0.42-0.61,0.75-1.04,0.95
		c-0.46,0.22-1.03,0.33-1.7,0.33h-2.33v-1.31h2.12c0.39,0,0.71-0.05,0.96-0.16c0.25-0.11,0.43-0.27,0.55-0.48
		c0.12-0.21,0.18-0.48,0.18-0.78c0-0.31-0.06-0.57-0.18-0.79c-0.13-0.22-0.32-0.4-0.56-0.5c-0.25-0.12-0.57-0.17-0.97-0.17h-1.45
		v7.41H572.9z M577.41,435.93l2.16,3.95h-1.77l-2.12-3.95H577.41z M580.61,431.15h1.78l2.14,3.86h0.09l2.13-3.86h1.79l-3.17,5.47
		v3.26h-1.58v-3.26L580.61,431.15L580.61,431.15z M597.1,431.15v8.73h-1.58v-7.19h-0.05l-2.04,1.3v-1.45l2.17-1.39L597.1,431.15
		L597.1,431.15z M603.04,440.05c-0.7,0-1.3-0.18-1.81-0.53c-0.5-0.36-0.89-0.87-1.15-1.55c-0.27-0.68-0.4-1.49-0.4-2.44
		c0-0.95,0.14-1.76,0.4-2.43c0.27-0.67,0.66-1.18,1.16-1.53c0.5-0.35,1.1-0.53,1.8-0.53c0.7,0,1.3,0.18,1.8,0.53
		c0.5,0.35,0.89,0.86,1.15,1.53c0.27,0.67,0.4,1.48,0.4,2.43c0,0.95-0.13,1.77-0.4,2.45c-0.27,0.67-0.65,1.19-1.15,1.54
		C604.34,439.87,603.74,440.05,603.04,440.05L603.04,440.05z M603.04,438.71c0.55,0,0.98-0.27,1.29-0.8
		c0.32-0.54,0.48-1.33,0.48-2.38c0-0.69-0.07-1.28-0.22-1.75c-0.14-0.47-0.35-0.83-0.61-1.07c-0.25-0.24-0.59-0.37-0.94-0.36
		c-0.54,0-0.97,0.27-1.29,0.81c-0.32,0.54-0.47,1.33-0.48,2.36c0,0.7,0.07,1.28,0.21,1.76c0.15,0.48,0.35,0.83,0.61,1.07
		C602.36,438.59,602.68,438.71,603.04,438.71L603.04,438.71z M611.88,431.15h1.93l2.59,6.32h0.1l2.59-6.32h1.93v8.73h-1.52v-6h-0.08
		l-2.41,5.97h-1.13l-2.41-5.98h-0.08v6.01h-1.52L611.88,431.15L611.88,431.15z M624.83,431.15v8.73h-1.58v-8.73H624.83z
		 M634.22,431.15v8.73h-1.41l-4.11-5.95h-0.07v5.95h-1.58v-8.73h1.41l4.11,5.95h0.08v-5.95H634.22L634.22,431.15z M641.18,433.55
		c-0.03-0.35-0.21-0.67-0.5-0.87c-0.29-0.21-0.67-0.31-1.14-0.31c-0.33,0-0.61,0.05-0.85,0.15c-0.21,0.08-0.4,0.22-0.54,0.4
		c-0.12,0.17-0.19,0.37-0.19,0.58c0,0.18,0.04,0.34,0.12,0.47c0.09,0.13,0.2,0.25,0.35,0.34c0.14,0.09,0.31,0.17,0.48,0.23
		c0.18,0.06,0.35,0.11,0.53,0.16l0.82,0.2c0.33,0.08,0.65,0.18,0.95,0.31c0.31,0.13,0.58,0.3,0.82,0.49
		c0.24,0.2,0.44,0.44,0.58,0.72c0.14,0.28,0.21,0.61,0.21,0.99c0,0.51-0.13,0.96-0.39,1.35c-0.26,0.39-0.64,0.69-1.13,0.91
		c-0.49,0.22-1.09,0.32-1.79,0.32c-0.68,0-1.27-0.11-1.77-0.32c-0.5-0.21-0.89-0.52-1.17-0.92c-0.28-0.4-0.43-0.89-0.45-1.47h1.56
		c0.02,0.3,0.12,0.56,0.28,0.76c0.17,0.2,0.38,0.35,0.64,0.45c0.27,0.1,0.57,0.15,0.9,0.15c0.34,0,0.65-0.05,0.9-0.15
		c0.26-0.11,0.47-0.25,0.61-0.43c0.15-0.19,0.22-0.41,0.23-0.66c0-0.21-0.07-0.41-0.2-0.56c-0.15-0.17-0.34-0.29-0.55-0.38
		c-0.26-0.11-0.54-0.2-0.82-0.27l-0.99-0.26c-0.72-0.18-1.29-0.46-1.7-0.84c-0.41-0.38-0.62-0.88-0.62-1.5
		c0-0.51,0.14-0.96,0.42-1.35c0.29-0.4,0.69-0.71,1.15-0.9c0.48-0.22,1.03-0.32,1.64-0.32c0.62,0,1.16,0.11,1.63,0.32
		c0.47,0.21,0.84,0.51,1.1,0.89c0.27,0.38,0.41,0.81,0.41,1.3L641.18,433.55L641.18,433.55z M548.14,473.88v-8.73h5.68v1.33h-4.1
		v2.37h3.8v1.33h-3.8v2.38h4.13v1.33H548.14z M557.1,465.15l2.27,6.87h0.09l2.27-6.87h1.74l-3.08,8.73h-1.95l-3.07-8.73
		C555.36,465.15,557.1,465.15,557.1,465.15z M565.11,473.88v-8.73h5.68v1.33h-4.1v2.37h3.8v1.33h-3.8v2.38h4.13v1.33
		C570.82,473.88,565.11,473.88,565.11,473.88z M572.9,473.88v-8.73h3.27c0.67,0,1.23,0.12,1.69,0.35c0.46,0.23,0.8,0.56,1.03,0.98
		c0.24,0.42,0.35,0.9,0.35,1.46c0,0.56-0.12,1.05-0.36,1.46c-0.24,0.42-0.61,0.75-1.04,0.95c-0.46,0.22-1.03,0.33-1.7,0.33h-2.33
		v-1.31h2.12c0.39,0,0.71-0.05,0.96-0.16c0.25-0.11,0.43-0.27,0.55-0.48c0.12-0.21,0.18-0.48,0.18-0.78c0-0.31-0.06-0.57-0.18-0.79
		c-0.13-0.22-0.32-0.4-0.56-0.5c-0.25-0.12-0.57-0.17-0.97-0.17h-1.45v7.41H572.9z M577.41,469.93l2.16,3.95h-1.77l-2.12-3.95
		H577.41z M580.61,465.15h1.78l2.14,3.86h0.09l2.13-3.86h1.79l-3.17,5.47v3.26h-1.58v-3.26L580.61,465.15L580.61,465.15z
		 M596.58,474c-0.57,0-1.08-0.11-1.53-0.32c-0.43-0.2-0.8-0.5-1.07-0.89c-0.26-0.38-0.41-0.83-0.42-1.29h1.53
		c0.03,0.36,0.18,0.65,0.47,0.88c0.28,0.23,0.62,0.34,1.01,0.34c0.31,0,0.59-0.07,0.83-0.21c0.24-0.14,0.43-0.34,0.57-0.59
		c0.14-0.25,0.21-0.54,0.2-0.86c0.01-0.31-0.06-0.61-0.21-0.88c-0.14-0.25-0.34-0.46-0.58-0.6c-0.26-0.15-0.55-0.23-0.85-0.22
		c-0.26,0-0.53,0.05-0.77,0.14c-0.25,0.1-0.45,0.23-0.6,0.39l-1.43-0.23l0.46-4.5h5.06v1.32h-3.75l-0.25,2.31h0.05
		c0.16-0.19,0.39-0.35,0.69-0.47c0.29-0.13,0.62-0.19,0.97-0.19c0.53,0,1,0.12,1.41,0.38c0.41,0.25,0.74,0.59,0.98,1.02
		c0.24,0.43,0.36,0.93,0.36,1.49c0,0.58-0.13,1.09-0.4,1.54c-0.26,0.45-0.65,0.81-1.1,1.06C597.74,473.87,597.2,474,596.58,474
		L596.58,474z M605.2,465.15h1.93l2.59,6.32h0.1l2.59-6.32h1.93v8.73h-1.52v-6h-0.08l-2.41,5.97h-1.13l-2.41-5.98h-0.08v6.01h-1.52
		V465.15L605.2,465.15z M618.16,465.15v8.73h-1.58v-8.73H618.16z M627.54,465.15v8.73h-1.41l-4.11-5.95h-0.07v5.95h-1.58v-8.73h1.42
		l4.11,5.95h0.08v-5.95H627.54z M634.51,467.55c-0.03-0.35-0.21-0.67-0.5-0.87c-0.29-0.21-0.67-0.31-1.14-0.31
		c-0.33,0-0.61,0.05-0.85,0.15c-0.21,0.08-0.4,0.22-0.54,0.4c-0.23,0.31-0.25,0.72-0.07,1.06c0.09,0.13,0.2,0.25,0.35,0.34
		c0.14,0.09,0.3,0.17,0.48,0.23c0.18,0.06,0.35,0.11,0.53,0.16l0.82,0.2c0.33,0.08,0.65,0.18,0.95,0.31
		c0.31,0.13,0.58,0.3,0.82,0.49c0.24,0.2,0.44,0.44,0.58,0.72c0.14,0.28,0.21,0.61,0.21,0.99c0,0.51-0.13,0.96-0.39,1.35
		c-0.26,0.39-0.64,0.69-1.13,0.91c-0.49,0.22-1.09,0.32-1.79,0.32c-0.68,0-1.27-0.11-1.77-0.32c-0.5-0.21-0.89-0.52-1.17-0.92
		c-0.28-0.4-0.43-0.89-0.45-1.47h1.56c0.02,0.3,0.12,0.56,0.28,0.76c0.16,0.2,0.38,0.35,0.64,0.45c0.27,0.1,0.57,0.15,0.89,0.15
		c0.34,0,0.65-0.05,0.9-0.15c0.26-0.11,0.47-0.25,0.61-0.43c0.15-0.19,0.22-0.41,0.23-0.66c0.01-0.21-0.07-0.41-0.2-0.56
		c-0.15-0.17-0.34-0.29-0.55-0.38c-0.26-0.11-0.54-0.2-0.82-0.27l-0.99-0.26c-0.72-0.18-1.29-0.46-1.7-0.84
		c-0.41-0.38-0.62-0.88-0.62-1.5c0-0.51,0.14-0.96,0.42-1.35c0.29-0.4,0.69-0.71,1.15-0.9c0.48-0.22,1.03-0.32,1.64-0.32
		c0.62,0,1.16,0.11,1.63,0.32c0.47,0.21,0.84,0.51,1.1,0.89c0.27,0.38,0.4,0.81,0.41,1.3L634.51,467.55L634.51,467.55z
		 M548.14,507.88v-8.73h5.68v1.33h-4.1v2.37h3.8v1.33h-3.8v2.38h4.13v1.33H548.14z M557.1,499.15l2.27,6.87h0.09l2.27-6.87h1.74
		l-3.08,8.73h-1.95l-3.07-8.73C555.36,499.15,557.1,499.15,557.1,499.15z M565.11,507.88v-8.73h5.68v1.33h-4.1v2.37h3.8v1.33h-3.8
		v2.38h4.13v1.33C570.82,507.88,565.11,507.88,565.11,507.88z M572.9,507.88v-8.73h3.27c0.67,0,1.23,0.12,1.69,0.35
		c0.46,0.23,0.8,0.56,1.03,0.98c0.24,0.42,0.35,0.9,0.35,1.46c0,0.56-0.12,1.05-0.36,1.46c-0.24,0.42-0.61,0.75-1.04,0.95
		c-0.46,0.22-1.03,0.33-1.7,0.33h-2.33v-1.31h2.12c0.39,0,0.71-0.05,0.96-0.16c0.25-0.11,0.43-0.27,0.55-0.48
		c0.12-0.21,0.18-0.47,0.18-0.78s-0.06-0.57-0.18-0.79c-0.13-0.22-0.32-0.4-0.56-0.5c-0.25-0.12-0.57-0.17-0.97-0.17h-1.45v7.41
		H572.9z M577.41,503.93l2.16,3.95h-1.77l-2.12-3.95H577.41z M580.61,499.15h1.78l2.14,3.86h0.09l2.13-3.86h1.79l-3.17,5.47v3.26
		h-1.58v-3.26L580.61,499.15L580.61,499.15z M593.63,499.15h1.93l2.59,6.32h0.1l2.59-6.32h1.93v8.73h-1.52v-6h-0.08l-2.41,5.97
		h-1.13l-2.41-5.98h-0.08v6.01h-1.52L593.63,499.15L593.63,499.15z M606.59,499.15v8.73h-1.58v-8.73H606.59z M615.97,499.15v8.73
		h-1.41l-4.11-5.95h-0.07v5.95h-1.58v-8.73h1.42l4.11,5.95h0.08v-5.95H615.97L615.97,499.15z M623.7,499.15h1.58v5.7
		c0,0.62-0.15,1.17-0.44,1.65c-0.3,0.48-0.73,0.87-1.24,1.11c-0.53,0.26-1.15,0.4-1.86,0.4c-0.71,0-1.34-0.13-1.87-0.4
		c-0.51-0.25-0.94-0.63-1.24-1.11c-0.29-0.48-0.44-1.02-0.44-1.65v-5.7h1.58v5.57c0,0.36,0.08,0.69,0.24,0.97
		c0.16,0.28,0.39,0.51,0.68,0.67c0.29,0.16,0.64,0.24,1.04,0.24c0.4,0,0.75-0.08,1.04-0.24c0.3-0.16,0.52-0.39,0.68-0.67
		s0.24-0.61,0.24-0.97V499.15L623.7,499.15z M627.11,500.48v-1.33h6.96v1.33h-2.7v7.4h-1.57v-7.4L627.11,500.48L627.11,500.48z
		 M635.92,507.88v-8.73h5.68v1.33h-4.09v2.37h3.8v1.33h-3.8v2.38h4.13v1.32L635.92,507.88L635.92,507.88z M549.26,541.88h-1.69
		l3.07-8.73h1.95l3.08,8.73h-1.69l-2.33-6.94h-0.07L549.26,541.88L549.26,541.88z M549.32,538.46h4.6v1.27h-4.6V538.46z
		 M560.28,541.88h-2.96v-8.73h3.02c0.87,0,1.61,0.17,2.23,0.52c0.62,0.34,1.12,0.86,1.44,1.5c0.34,0.65,0.5,1.43,0.5,2.34
		c0,0.91-0.17,1.69-0.51,2.34c-0.32,0.64-0.83,1.16-1.45,1.5C561.93,541.71,561.17,541.88,560.28,541.88L560.28,541.88z
		 M558.9,540.51h1.3c0.61,0,1.11-0.11,1.52-0.33c0.41-0.23,0.71-0.56,0.92-1c0.2-0.45,0.31-1,0.31-1.67c0-0.67-0.1-1.22-0.31-1.66
		c-0.19-0.42-0.5-0.77-0.91-0.99c-0.4-0.22-0.89-0.33-1.48-0.33h-1.35V540.51L558.9,540.51z M567.22,533.15l2.27,6.87h0.09
		l2.27-6.87h1.74l-3.08,8.73h-1.95l-3.07-8.73L567.22,533.15L567.22,533.15z M575.34,541.88h-1.69l3.07-8.73h1.95l3.08,8.73h-1.69
		l-2.33-6.94h-0.07L575.34,541.88L575.34,541.88z M575.39,538.46h4.6v1.27h-4.6V538.46z M590.57,533.15v8.73h-1.41l-4.11-5.95h-0.07
		v5.95h-1.58v-8.73h1.41l4.11,5.95H589v-5.95L590.57,533.15L590.57,533.15z M600.26,536.1h-1.59c-0.04-0.25-0.13-0.48-0.25-0.69
		c-0.24-0.41-0.62-0.71-1.08-0.84c-0.24-0.08-0.49-0.11-0.75-0.11c-0.47,0-0.9,0.12-1.26,0.36c-0.37,0.24-0.65,0.58-0.86,1.04
		c-0.21,0.46-0.31,1.01-0.31,1.67c0,0.67,0.1,1.23,0.31,1.69c0.21,0.45,0.5,0.8,0.86,1.03c0.37,0.23,0.78,0.34,1.26,0.34
		c0.26,0,0.51-0.03,0.73-0.1c0.23-0.07,0.44-0.17,0.62-0.31c0.38-0.29,0.64-0.71,0.73-1.18l1.59,0.01c-0.06,0.41-0.19,0.8-0.39,1.17
		c-0.41,0.75-1.08,1.33-1.89,1.61c-0.46,0.16-0.94,0.24-1.42,0.23c-0.77,0-1.45-0.18-2.05-0.53c-0.6-0.36-1.08-0.87-1.42-1.54
		c-0.35-0.67-0.52-1.47-0.52-2.41c0-0.94,0.17-1.74,0.52-2.41c0.35-0.67,0.83-1.18,1.43-1.54c0.6-0.35,1.28-0.53,2.05-0.53
		c0.49,0,0.94,0.07,1.35,0.2c0.42,0.14,0.79,0.34,1.12,0.6c0.33,0.26,0.6,0.58,0.81,0.96C600.06,535.18,600.2,535.61,600.26,536.1
		L600.26,536.1z M602.21,541.88v-8.73h5.68v1.33h-4.09v2.37h3.8v1.33h-3.8v2.38h4.13v1.33L602.21,541.88L602.21,541.88z
		 M612.96,541.88H610v-8.73h3.02c0.87,0,1.61,0.17,2.23,0.52c0.62,0.34,1.12,0.86,1.44,1.5c0.34,0.65,0.5,1.43,0.5,2.33
		c0,0.91-0.17,1.69-0.51,2.34c-0.32,0.64-0.83,1.16-1.45,1.5C614.6,541.71,613.84,541.88,612.96,541.88L612.96,541.88z
		 M611.58,540.51h1.3c0.61,0,1.11-0.11,1.52-0.33c0.41-0.23,0.73-0.58,0.92-1c0.21-0.45,0.31-1,0.31-1.67c0-0.67-0.1-1.22-0.31-1.66
		c-0.18-0.42-0.5-0.77-0.91-0.99c-0.4-0.22-0.89-0.33-1.48-0.33h-1.35V540.51L611.58,540.51z M627.41,535.55
		c-0.03-0.35-0.21-0.67-0.5-0.87c-0.29-0.21-0.67-0.31-1.14-0.31c-0.33,0-0.61,0.05-0.85,0.15c-0.21,0.08-0.4,0.22-0.54,0.4
		c-0.12,0.17-0.19,0.37-0.19,0.58c0,0.18,0.04,0.34,0.12,0.47c0.08,0.13,0.2,0.25,0.34,0.34c0.15,0.09,0.3,0.17,0.48,0.23
		c0.18,0.06,0.35,0.11,0.53,0.16l0.82,0.2c0.33,0.08,0.65,0.18,0.95,0.31c0.31,0.13,0.58,0.29,0.82,0.49
		c0.24,0.2,0.44,0.44,0.58,0.72c0.14,0.28,0.21,0.61,0.21,0.99c0,0.51-0.13,0.96-0.39,1.35c-0.26,0.39-0.64,0.69-1.13,0.91
		c-0.49,0.22-1.09,0.32-1.79,0.32c-0.68,0-1.27-0.1-1.77-0.32c-0.47-0.19-0.87-0.51-1.17-0.92c-0.28-0.4-0.43-0.9-0.45-1.47h1.55
		c0.02,0.3,0.12,0.56,0.28,0.76c0.16,0.2,0.38,0.35,0.64,0.45c0.27,0.1,0.57,0.15,0.9,0.15c0.34,0,0.64-0.05,0.9-0.15
		c0.26-0.1,0.47-0.25,0.61-0.43c0.15-0.19,0.22-0.41,0.23-0.66c0-0.21-0.07-0.41-0.2-0.56c-0.15-0.17-0.34-0.29-0.55-0.38
		c-0.27-0.11-0.54-0.2-0.82-0.27l-0.99-0.26c-0.72-0.18-1.29-0.46-1.7-0.84c-0.42-0.38-0.62-0.88-0.62-1.5
		c0-0.51,0.14-0.96,0.42-1.35c0.3-0.4,0.69-0.71,1.15-0.9c0.48-0.22,1.03-0.32,1.64-0.32c0.62,0,1.16,0.11,1.63,0.32
		c0.47,0.21,0.84,0.51,1.1,0.89c0.27,0.38,0.4,0.81,0.41,1.3H627.41L627.41,535.55z M638.43,536.1h-1.59
		c-0.04-0.25-0.12-0.48-0.25-0.69c-0.24-0.41-0.62-0.71-1.08-0.84c-0.24-0.08-0.49-0.11-0.75-0.11c-0.47,0-0.9,0.12-1.26,0.36
		c-0.37,0.24-0.65,0.58-0.86,1.04c-0.21,0.46-0.31,1.01-0.31,1.67c0,0.67,0.1,1.23,0.31,1.69c0.21,0.45,0.5,0.8,0.86,1.03
		c0.37,0.23,0.78,0.34,1.26,0.34c0.26,0,0.51-0.03,0.73-0.1c0.23-0.07,0.44-0.17,0.62-0.31c0.38-0.29,0.64-0.71,0.73-1.18l1.59,0.01
		c-0.06,0.41-0.19,0.8-0.39,1.17c-0.41,0.75-1.08,1.33-1.89,1.61c-0.43,0.15-0.9,0.23-1.42,0.23c-0.77,0-1.45-0.18-2.05-0.53
		c-0.6-0.36-1.08-0.87-1.42-1.54c-0.35-0.67-0.52-1.47-0.52-2.41c0-0.94,0.17-1.74,0.52-2.41c0.35-0.67,0.83-1.18,1.43-1.54
		c0.6-0.35,1.28-0.53,2.05-0.53c0.48,0,0.94,0.07,1.35,0.2c0.42,0.14,0.79,0.34,1.12,0.6c0.33,0.26,0.59,0.58,0.81,0.96
		C638.23,535.18,638.37,535.61,638.43,536.1L638.43,536.1z M640.38,541.88v-8.73h1.58v3.69h4.04v-3.69h1.59v8.73h-1.59v-3.71h-4.04
		v3.71L640.38,541.88L640.38,541.88z M649.81,541.88v-8.73h5.68v1.33h-4.1v2.37h3.8v1.33h-3.8v2.38h4.13v1.33L649.81,541.88
		L649.81,541.88z M660.56,541.88h-2.96v-8.73h3.02c0.87,0,1.61,0.17,2.23,0.52c0.62,0.34,1.12,0.86,1.44,1.5
		c0.34,0.65,0.5,1.43,0.5,2.33c0,0.91-0.17,1.69-0.51,2.34c-0.32,0.64-0.83,1.16-1.45,1.5C662.2,541.71,661.44,541.88,660.56,541.88
		L660.56,541.88z M659.18,540.51h1.3c0.61,0,1.11-0.11,1.52-0.33c0.41-0.22,0.71-0.56,0.92-1c0.2-0.45,0.31-1,0.31-1.67
		c0-0.67-0.1-1.22-0.31-1.66c-0.19-0.42-0.5-0.77-0.91-0.99c-0.4-0.22-0.89-0.33-1.48-0.33h-1.35V540.51L659.18,540.51z
		 M672.3,533.15h1.58v5.7c0,0.62-0.15,1.17-0.44,1.65c-0.3,0.48-0.73,0.87-1.24,1.11c-0.53,0.26-1.15,0.4-1.86,0.4
		c-0.71,0-1.34-0.13-1.87-0.4c-0.51-0.25-0.94-0.63-1.24-1.11c-0.29-0.47-0.44-1.02-0.44-1.65v-5.7h1.58v5.57
		c0,0.36,0.08,0.69,0.24,0.97c0.16,0.28,0.39,0.51,0.68,0.67c0.29,0.16,0.64,0.24,1.04,0.24c0.4,0,0.75-0.08,1.04-0.24
		c0.29-0.16,0.52-0.39,0.68-0.67s0.24-0.61,0.24-0.97L672.3,533.15L672.3,533.15z M676.1,541.88v-8.73h1.58v7.4h3.84v1.33
		L676.1,541.88L676.1,541.88z M683.39,541.88v-8.73h5.68v1.33h-4.09v2.37h3.8v1.33h-3.8v2.38h4.13v1.33L683.39,541.88L683.39,541.88
		z"/>
	<path fill-rule="evenodd" clip-rule="evenodd" fill="#FFFFFF" d="M625.69,381l-1.25-1.91c-0.85-1.31-2.67-1.78-4.07-1.07l0.32-0.17
		c-0.35,0.19-0.51,0.61-0.37,0.99l1.73,4.48c0.27,0.71,0.98,1.72,1.56,2.22c0,0,3.49,2.89,3.49,3.97v1.37h5.65l1.41-2.82l1.41,2.82
		h1.41v-1.37c0-1.08,2.13-4.49,2.13-4.49c0.39-0.66,0.72-1.83,0.72-2.6v-5.7c-0.03-1.26-1.1-2.28-2.42-2.28
		c-0.66,0-1.2,0.51-1.2,1.14v0.46c0-1.26-1.07-2.28-2.4-2.28c-0.66,0-1.2,0.51-1.2,1.14v0.46c0-1.26-1.07-2.28-2.4-2.28
		c-0.66,0-1.2,0.51-1.2,1.14v0.46c0-0.2-0.02-0.36-0.06-0.49l-0.37-5.88c-0.05-0.79-0.71-1.41-1.5-1.41c-0.78,0-1.41,0.63-1.41,1.41
		V381L625.69,381z M635.6,379.59h1.41v5.65h-1.41V379.59z M632.78,379.59h1.41v5.65h-1.41V379.59z M629.96,379.59h1.41v5.65h-1.41
		V379.59z"/>
	<defs>
		<filter id="Adobe_OpacityMaskFilter" filterUnits="userSpaceOnUse" x="618.78" y="365.38" width="22.56" height="27">
			<feColorMatrix  type="matrix" values="1 0 0 0 0  0 1 0 0 0  0 0 1 0 0  0 0 0 1 0"/>
		</filter>
	</defs>
	<mask maskUnits="userSpaceOnUse" x="618.78" y="365.38" width="22.56" height="27" id="schedule-test_svg__e_1_">
		<path fill="#FFFFFF" filter="url(#Adobe_OpacityMaskFilter)" d="M618.28,364.88h24v28h-24V364.88z"/>
		<path fill-rule="evenodd" clip-rule="evenodd" d="M625.69,381l-1.25-1.91c-0.85-1.31-2.67-1.78-4.07-1.07l0.32-0.17
			c-0.35,0.19-0.51,0.61-0.37,0.99l1.73,4.48c0.27,0.71,0.98,1.72,1.56,2.22c0,0,3.49,2.89,3.49,3.97v1.37h5.65l1.41-2.82l1.41,2.82
			h1.41v-1.37c0-1.08,2.13-4.49,2.13-4.49c0.39-0.66,0.72-1.83,0.72-2.6v-5.7c-0.03-1.26-1.1-2.28-2.42-2.28
			c-0.66,0-1.2,0.51-1.2,1.14v0.46c0-1.26-1.07-2.28-2.4-2.28c-0.66,0-1.2,0.51-1.2,1.14v0.46c0-1.26-1.07-2.28-2.4-2.28
			c-0.66,0-1.2,0.51-1.2,1.14v0.46c0-0.2-0.02-0.36-0.06-0.49l-0.37-5.88c-0.05-0.79-0.71-1.41-1.5-1.41
			c-0.78,0-1.41,0.63-1.41,1.41V381L625.69,381z M635.6,379.59h1.41v5.65h-1.41V379.59z M632.78,379.59h1.41v5.65h-1.41V379.59z
			 M629.96,379.59h1.41v5.65h-1.41V379.59z"/>
	</mask>
	<path mask="url(#schedule-test_svg__e_1_)" d="M625.69,381l-1.26,0.82l2.76,4.21V381H625.69z M624.44,379.09l1.26-0.82
		L624.44,379.09z M620.33,378.84l-1.4,0.54L620.33,378.84z M622.06,383.32l1.4-0.54L622.06,383.32z M623.62,385.54l-0.98,1.13
		l0.01,0.01l0.01,0.01L623.62,385.54L623.62,385.54z M627.11,390.88h-1.5v1.5h1.5V390.88L627.11,390.88z M632.75,390.88v1.5h0.93
		l0.41-0.83L632.75,390.88z M634.16,388.06l1.34-0.67l-1.34-2.68l-1.34,2.68L634.16,388.06z M635.58,390.88l-1.34,0.67l0.41,0.83
		h0.93V390.88L635.58,390.88z M636.99,390.88v1.5h1.5v-1.5L636.99,390.88L636.99,390.88z M639.12,385.02l1.27,0.8l0.01-0.02
		l0.01-0.02L639.12,385.02z M639.84,376.72h1.5v-0.03L639.84,376.72z M628.97,374.18l-1.5,0.09l0.01,0.19l0.06,0.18L628.97,374.18
		L628.97,374.18z M628.61,368.29l-1.5,0.09L628.61,368.29z M625.69,368.29h-1.5H625.69z M637.01,379.59h1.5v-1.5h-1.5V379.59z
		 M637.01,385.23v1.5h1.5v-1.5H637.01z M635.6,385.23h-1.5v1.5h1.5V385.23z M634.19,379.59h1.5v-1.5h-1.5V379.59z M634.19,385.23
		v1.5h1.5v-1.5H634.19z M632.78,385.23h-1.5v1.5h1.5V385.23z M631.37,379.59h1.5v-1.5h-1.5V379.59z M631.37,385.23v1.5h1.5v-1.5
		H631.37z M629.96,385.23h-1.5v1.5h1.5V385.23z M626.95,380.18l-1.25-1.91l-2.51,1.64l1.25,1.91L626.95,380.18L626.95,380.18z
		 M625.7,378.26c-1.28-1.95-3.94-2.64-6.01-1.58l1.37,2.67c0.71-0.37,1.7-0.11,2.13,0.55L625.7,378.26L625.7,378.26z M621.06,379.35
		l0.33-0.17l-1.37-2.67l-0.32,0.17L621.06,379.35L621.06,379.35z M620.01,376.52c-1.04,0.54-1.49,1.79-1.08,2.86l2.8-1.08
		c0.06,0.16,0.07,0.34,0.01,0.5c-0.07,0.17-0.19,0.31-0.35,0.39L620.01,376.52L620.01,376.52z M618.93,379.38l1.73,4.48l2.8-1.08
		l-1.73-4.48L618.93,379.38L618.93,379.38z M620.66,383.86c0.36,0.94,1.21,2.14,1.97,2.81l1.97-2.27c-0.4-0.34-0.96-1.14-1.14-1.63
		L620.66,383.86L620.66,383.86z M623.62,385.54l-0.96,1.15h0l0,0l0.01,0.01l0.03,0.02l0.1,0.09c0.52,0.44,1.03,0.9,1.51,1.38
		c0.42,0.41,0.8,0.82,1.06,1.16c0.13,0.17,0.21,0.3,0.25,0.37c0.05,0.11-0.02,0.01-0.02-0.21h3c0-0.49-0.18-0.92-0.32-1.18
		c-0.15-0.29-0.33-0.56-0.54-0.82c-0.41-0.52-0.86-1.01-1.33-1.46c-0.59-0.57-1.19-1.13-1.82-1.65l-0.01-0.01l0,0l0,0L623.62,385.54
		L623.62,385.54z M625.61,389.51v1.37h3v-1.37L625.61,389.51L625.61,389.51z M627.11,392.38h5.65v-3h-5.65V392.38z M634.09,391.55
		l1.41-2.82l-2.68-1.34l-1.41,2.82L634.09,391.55z M632.82,388.73l1.41,2.82l2.68-1.34l-1.41-2.82L632.82,388.73z M635.58,392.38
		h1.41v-3h-1.41V392.38z M638.49,390.88v-1.37h-3v1.37L638.49,390.88L638.49,390.88z M638.49,389.51c0,0.07,0.01-0.09,0.21-0.57
		c0.17-0.41,0.41-0.89,0.67-1.36c0.25-0.47,0.51-0.91,0.7-1.24c0.1-0.16,0.18-0.29,0.23-0.38l0.06-0.1
		c0.01-0.01,0.01-0.02,0.02-0.03l0-0.01l0,0l-1.27-0.8l-1.27-0.8l0,0l0,0c0,0,0,0.01-0.01,0.01l-0.02,0.03l-0.07,0.12
		c-0.35,0.58-0.69,1.16-1.01,1.76c-0.29,0.53-0.55,1.07-0.79,1.62c-0.19,0.46-0.45,1.13-0.45,1.74H638.49z M640.41,385.79
		c0.28-0.48,0.51-1.07,0.66-1.62c0.15-0.55,0.27-1.18,0.27-1.74h-3c0,0.21-0.05,0.55-0.16,0.94c-0.08,0.31-0.2,0.61-0.35,0.9
		L640.41,385.79L640.41,385.79z M641.34,382.42v-5.7h-3v5.7H641.34z M641.34,376.69c-0.04-2.13-1.83-3.75-3.92-3.75v3
		c0.55,0,0.91,0.42,0.92,0.81L641.34,376.69L641.34,376.69z M637.42,372.94c-1.42,0-2.7,1.12-2.7,2.64h3c0,0.26-0.2,0.36-0.3,0.36
		V372.94z M634.72,375.58v0.46h3v-0.46H634.72z M637.72,376.04c0-2.16-1.81-3.78-3.9-3.78v3c0.56,0,0.9,0.42,0.9,0.78H637.72z
		 M633.82,372.25c-1.42,0-2.7,1.12-2.7,2.64h3c0,0.26-0.2,0.36-0.3,0.36V372.25z M631.13,374.9v0.46h3v-0.46H631.13z M634.13,375.35
		c0-2.16-1.81-3.78-3.9-3.78v3c0.56,0,0.9,0.42,0.9,0.78H634.13z M630.23,371.57c-1.42,0-2.7,1.12-2.7,2.64h3
		c0,0.26-0.2,0.36-0.3,0.36V371.57z M627.53,374.21v0.46h3v-0.46H627.53z M630.53,374.67c0-0.3-0.03-0.63-0.14-0.96l-2.85,0.93
		c0-0.01-0.01-0.03-0.01-0.05l0-0.01l0,0.02l0,0.06H630.53L630.53,374.67z M630.47,374.08l-0.37-5.88l-2.99,0.18l0.37,5.88
		L630.47,374.08L630.47,374.08z M630.1,368.2c-0.1-1.58-1.41-2.82-3-2.82v3l-0.01,0h0l0,0l0,0c0,0,0,0,0,0.01l0,0l0,0v0L630.1,368.2
		L630.1,368.2z M627.11,365.38c-1.61,0-2.91,1.3-2.91,2.9c0,0,0,0,0,0.01h3c0,0.05-0.04,0.09-0.09,0.09V365.38z M624.19,368.29v5.65
		h3v-5.65H624.19z M624.19,373.94V381h3v-7.06H624.19L624.19,373.94z M635.6,381.09h1.41v-3h-1.41V381.09z M635.51,379.59v5.65h3
		v-5.65H635.51z M637.01,383.73h-1.41v3h1.41V383.73z M637.1,385.23v-5.65h-3v5.65H637.1z M632.78,381.09h1.41v-3h-1.41V381.09z
		 M632.69,379.59v5.65h3v-5.65H632.69z M634.19,383.73h-1.41v3h1.41V383.73z M634.28,385.23v-5.65h-3v5.65H634.28z M629.96,381.09
		h1.41v-3h-1.41V381.09z M629.87,379.59v5.65h3v-5.65H629.87z M631.37,383.73h-1.41v3h1.41V383.73z M631.46,385.23v-5.65h-3v5.65
		H631.46z"/>
	<path fill="#2D3748" d="M523.28,160.88c0-3.31,2.69-6,6-6h248c3.31,0,6,2.69,6,6v42c0,3.31-2.69,6-6,6h-248c-3.31,0-6-2.69-6-6
		V160.88z"/>
	<path fill="#248ABE" d="M758.53,184.97c-0.04-0.04-0.2-0.18-0.34-0.31c-0.86-0.78-2.26-2.8-2.68-3.86
		c-0.07-0.16-0.21-0.57-0.22-0.79c0-0.21,0.05-0.41,0.14-0.6c0.14-0.24,0.35-0.43,0.6-0.53c0.17-0.07,0.7-0.17,0.71-0.17
		c0.57-0.1,1.51-0.16,2.54-0.16c0.98,0,1.88,0.06,2.46,0.14c0.01,0.01,0.66,0.11,0.89,0.23c0.41,0.21,0.66,0.62,0.66,1.05v0.04
		c-0.01,0.28-0.26,0.88-0.27,0.88c-0.43,1-1.76,2.98-2.64,3.78c0,0-0.23,0.22-0.37,0.32c-0.21,0.15-0.45,0.23-0.71,0.23
		C759,185.21,758.74,185.13,758.53,184.97z"/>
	<path fill="#FFFFFF" d="M551.77,187.02c-0.83,0-1.54-0.13-2.14-0.38s-1.05-0.58-1.36-0.99c-0.3-0.38-0.47-0.85-0.49-1.33
		c-0.01-0.16,0.12-0.29,0.28-0.29c0.01,0,0.01,0,0.02,0h1.25c0.11,0,0.2,0.02,0.25,0.07c0.08,0.05,0.14,0.12,0.18,0.2
		c0.09,0.32,0.31,0.58,0.64,0.8c0.34,0.22,0.79,0.32,1.37,0.32c0.66,0,1.16-0.11,1.5-0.32c0.34-0.22,0.5-0.53,0.5-0.92
		c0.01-0.24-0.09-0.48-0.27-0.64c-0.17-0.17-0.42-0.31-0.77-0.43c-0.5-0.17-1-0.32-1.51-0.45c-1.1-0.26-1.91-0.61-2.42-1.04
		c-0.5-0.44-0.76-1.06-0.76-1.86c0-0.54,0.14-1.02,0.43-1.44c0.3-0.42,0.72-0.75,1.27-0.99c0.56-0.24,1.21-0.36,1.95-0.36
		c0.76,0,1.43,0.13,1.99,0.41c0.56,0.27,0.98,0.61,1.27,1.02c0.3,0.4,0.46,0.8,0.48,1.2c0.01,0.16-0.12,0.29-0.28,0.29
		c-0.01,0-0.01,0-0.02,0h-1.3c-0.18,0.01-0.34-0.1-0.41-0.27c-0.06-0.3-0.24-0.55-0.56-0.74c-0.32-0.21-0.71-0.31-1.18-0.31
		c-0.52,0-0.93,0.1-1.23,0.29c-0.3,0.2-0.45,0.48-0.45,0.85c0,0.26,0.07,0.48,0.22,0.64c0.15,0.17,0.38,0.32,0.7,0.45
		c0.33,0.13,0.79,0.27,1.4,0.43c0.82,0.19,1.47,0.4,1.96,0.63c0.49,0.23,0.86,0.53,1.09,0.88c0.23,0.35,0.35,0.81,0.35,1.36
		c0,0.6-0.17,1.12-0.5,1.57c-0.33,0.44-0.79,0.78-1.4,1.01C553.25,186.9,552.56,187.02,551.77,187.02z M558.19,186.88
		c-0.09,0-0.18-0.03-0.24-0.1c-0.06-0.06-0.1-0.15-0.1-0.24v-9.11c0-0.1,0.03-0.19,0.08-0.25c0.07-0.07,0.16-0.1,0.25-0.1h6.16
		c0.09,0,0.19,0.03,0.25,0.1c0.07,0.07,0.1,0.16,0.1,0.25v0.92c0,0.09-0.03,0.19-0.1,0.25c-0.07,0.06-0.16,0.09-0.25,0.08h-4.61
		v2.48h4.3c0.09,0,0.19,0.03,0.25,0.1c0.07,0.06,0.1,0.13,0.1,0.24v0.87c0,0.09-0.03,0.19-0.1,0.25c-0.07,0.06-0.16,0.09-0.25,0.08
		h-4.3v2.56h4.72c0.09,0,0.19,0.03,0.25,0.1c0.07,0.07,0.1,0.16,0.1,0.25v0.92c0,0.09-0.03,0.19-0.1,0.25
		c-0.07,0.06-0.16,0.09-0.25,0.08C564.46,186.88,558.19,186.88,558.19,186.88z M569.55,186.88c-0.09,0-0.18-0.03-0.24-0.1
		c-0.06-0.06-0.1-0.15-0.1-0.24v-7.74h-2.59c-0.09,0-0.18-0.03-0.24-0.1c-0.06-0.06-0.1-0.15-0.1-0.24v-1.04
		c0-0.1,0.03-0.19,0.08-0.25c0.07-0.07,0.16-0.1,0.25-0.1h7.14c0.09,0,0.19,0.03,0.25,0.1c0.07,0.07,0.1,0.16,0.1,0.25v1.04
		c0,0.09-0.03,0.18-0.1,0.24c-0.07,0.07-0.16,0.1-0.25,0.1h-2.58v7.74c0,0.09-0.03,0.18-0.1,0.24c-0.07,0.07-0.16,0.1-0.25,0.1
		H569.55L569.55,186.88z M581.55,186.88c-0.09,0-0.18-0.03-0.24-0.1c-0.06-0.06-0.1-0.15-0.1-0.24v-7.74h-2.59
		c-0.09,0-0.18-0.03-0.24-0.1c-0.06-0.06-0.1-0.15-0.1-0.24v-1.04c0-0.1,0.03-0.19,0.08-0.25c0.07-0.07,0.16-0.1,0.25-0.1h7.14
		c0.1,0,0.19,0.03,0.25,0.1c0.07,0.06,0.1,0.15,0.1,0.25v1.04c0,0.09-0.03,0.18-0.1,0.24c-0.07,0.07-0.16,0.1-0.25,0.1h-2.58v7.74
		c0,0.09-0.03,0.18-0.1,0.24c-0.07,0.07-0.16,0.1-0.25,0.1H581.55L581.55,186.88z M588.37,186.88c-0.09,0-0.18-0.03-0.24-0.1
		c-0.06-0.06-0.1-0.15-0.1-0.24v-9.11c0-0.1,0.03-0.19,0.08-0.25c0.07-0.07,0.16-0.1,0.25-0.1h6.16c0.09,0,0.19,0.03,0.25,0.1
		c0.07,0.06,0.1,0.15,0.1,0.25v0.92c0,0.09-0.03,0.18-0.1,0.25c-0.07,0.06-0.16,0.09-0.25,0.08h-4.61v2.48h4.3
		c0.09,0,0.19,0.03,0.25,0.1c0.07,0.06,0.1,0.15,0.1,0.24v0.87c0,0.09-0.03,0.18-0.1,0.25c-0.07,0.06-0.16,0.09-0.25,0.08h-4.3v2.56
		h4.72c0.09,0,0.19,0.03,0.25,0.1c0.07,0.07,0.1,0.15,0.1,0.25v0.92c0,0.09-0.03,0.18-0.1,0.25c-0.07,0.06-0.16,0.09-0.25,0.08
		L588.37,186.88L588.37,186.88z M600.64,187.02c-0.83,0-1.54-0.13-2.14-0.38c-0.6-0.25-1.05-0.58-1.36-0.99
		c-0.3-0.38-0.47-0.85-0.49-1.33c-0.01-0.16,0.12-0.29,0.28-0.29c0.01,0,0.01,0,0.02,0h1.25c0.11,0,0.2,0.02,0.25,0.07
		c0.08,0.05,0.14,0.12,0.18,0.2c0.09,0.32,0.31,0.58,0.64,0.8c0.34,0.22,0.79,0.32,1.37,0.32c0.66,0,1.16-0.11,1.5-0.32
		c0.34-0.22,0.5-0.53,0.5-0.92c0.01-0.24-0.09-0.48-0.27-0.64c-0.17-0.17-0.43-0.31-0.77-0.43c-0.5-0.17-1-0.32-1.51-0.45
		c-1.1-0.26-1.91-0.61-2.42-1.04c-0.5-0.44-0.76-1.06-0.76-1.86c0-0.54,0.15-1.02,0.43-1.44c0.3-0.42,0.72-0.75,1.27-0.99
		c0.56-0.24,1.21-0.36,1.95-0.36c0.77,0,1.43,0.13,1.99,0.41c0.56,0.27,0.98,0.61,1.27,1.02c0.3,0.4,0.46,0.8,0.48,1.2
		c0.01,0.16-0.12,0.29-0.28,0.29c-0.01,0-0.01,0-0.02,0h-1.3c-0.18,0.01-0.34-0.1-0.41-0.27c-0.06-0.3-0.24-0.55-0.56-0.74
		c-0.32-0.21-0.71-0.31-1.18-0.31c-0.52,0-0.93,0.1-1.23,0.29c-0.3,0.2-0.45,0.48-0.45,0.85c0,0.26,0.08,0.48,0.22,0.64
		c0.15,0.17,0.38,0.32,0.7,0.45c0.33,0.13,0.79,0.27,1.4,0.43c0.82,0.19,1.47,0.4,1.96,0.63c0.49,0.23,0.86,0.53,1.09,0.88
		c0.23,0.35,0.35,0.81,0.35,1.36c0,0.6-0.17,1.12-0.5,1.57c-0.33,0.44-0.79,0.78-1.4,1.01C602.12,186.9,601.43,187.02,600.64,187.02
		L600.64,187.02z M609.11,186.88c-0.09,0-0.18-0.03-0.24-0.1c-0.06-0.06-0.1-0.15-0.1-0.24v-7.74h-2.59c-0.09,0-0.18-0.03-0.24-0.1
		c-0.06-0.06-0.1-0.15-0.1-0.24v-1.04c0-0.1,0.03-0.19,0.08-0.25c0.07-0.07,0.16-0.1,0.25-0.1h7.14c0.09,0,0.19,0.03,0.25,0.1
		c0.07,0.07,0.1,0.16,0.1,0.25v1.04c0,0.09-0.03,0.18-0.1,0.24c-0.07,0.07-0.16,0.1-0.25,0.1h-2.58v7.74c0,0.09-0.03,0.18-0.1,0.24
		c-0.07,0.07-0.16,0.1-0.25,0.1H609.11L609.11,186.88z M622.35,187.02c-0.83,0-1.54-0.13-2.14-0.38c-0.6-0.25-1.05-0.58-1.36-0.99
		c-0.3-0.38-0.47-0.85-0.49-1.33c-0.01-0.16,0.12-0.29,0.28-0.29c0.01,0,0.01,0,0.02,0h1.25c0.11,0,0.2,0.02,0.25,0.07
		c0.08,0.05,0.14,0.12,0.18,0.2c0.09,0.32,0.31,0.58,0.64,0.8c0.34,0.22,0.79,0.32,1.37,0.32c0.66,0,1.16-0.11,1.5-0.32
		c0.34-0.22,0.5-0.53,0.5-0.92c0.01-0.24-0.09-0.48-0.27-0.64c-0.17-0.17-0.42-0.31-0.77-0.43c-0.5-0.17-1-0.32-1.51-0.45
		c-1.1-0.26-1.91-0.61-2.42-1.04c-0.5-0.44-0.76-1.06-0.76-1.86c0-0.54,0.14-1.02,0.43-1.44c0.3-0.42,0.72-0.75,1.27-0.99
		c0.56-0.24,1.21-0.36,1.95-0.36c0.77,0,1.43,0.13,1.99,0.41c0.56,0.27,0.99,0.61,1.27,1.02c0.3,0.4,0.46,0.8,0.48,1.2
		c0.01,0.16-0.12,0.29-0.28,0.29c-0.01,0-0.01,0-0.02,0h-1.3c-0.18,0.01-0.34-0.1-0.41-0.27c-0.06-0.3-0.24-0.55-0.56-0.74
		c-0.32-0.21-0.71-0.31-1.18-0.31c-0.52,0-0.93,0.1-1.23,0.29c-0.3,0.2-0.45,0.48-0.45,0.85c0,0.26,0.08,0.48,0.22,0.64
		c0.15,0.17,0.38,0.32,0.7,0.45c0.33,0.13,0.79,0.27,1.4,0.43c0.82,0.19,1.48,0.4,1.96,0.63c0.49,0.23,0.86,0.53,1.09,0.88
		c0.23,0.35,0.35,0.81,0.35,1.36c0,0.6-0.17,1.12-0.5,1.57c-0.33,0.44-0.79,0.78-1.4,1.01C623.82,186.9,623.13,187.02,622.35,187.02
		L622.35,187.02z M632.21,187.02c-1.29,0-2.29-0.33-3-0.99c-0.7-0.66-1.07-1.6-1.12-2.8c-0.01-0.41-0.02-0.82-0.01-1.23
		c0-0.58,0-1,0.01-1.26c0.05-1.2,0.42-2.12,1.13-2.79c0.72-0.67,1.71-1.01,2.98-1.01c0.83,0,1.55,0.15,2.17,0.43
		c0.62,0.28,1.09,0.67,1.43,1.16c0.34,0.49,0.52,1.06,0.53,1.65v0.03c0,0.07-0.03,0.14-0.1,0.2c-0.05,0.05-0.12,0.07-0.2,0.07h-1.33
		c-0.11,0-0.2-0.02-0.25-0.07c-0.06-0.05-0.1-0.13-0.14-0.27c-0.15-0.59-0.4-1-0.74-1.23c-0.35-0.24-0.81-0.36-1.39-0.36
		c-1.34,0-2.04,0.75-2.1,2.25c-0.01,0.25-0.01,0.64-0.01,1.16c0,0.52,0,0.92,0.01,1.19c0.06,1.5,0.76,2.25,2.1,2.25
		c0.58,0,1.04-0.12,1.39-0.36c0.35-0.24,0.6-0.65,0.74-1.23c0.03-0.13,0.07-0.22,0.13-0.27c0.08-0.05,0.17-0.08,0.27-0.07h1.33
		c0.08,0,0.15,0.03,0.21,0.08c0.06,0.05,0.09,0.13,0.08,0.21c-0.01,0.6-0.2,1.17-0.53,1.67c-0.34,0.49-0.81,0.87-1.43,1.16
		C633.76,186.88,633.04,187.02,632.21,187.02L632.21,187.02z M638.84,186.88c-0.09,0-0.18-0.03-0.24-0.1
		c-0.06-0.06-0.1-0.15-0.1-0.24v-9.11c0-0.1,0.03-0.19,0.08-0.25c0.07-0.07,0.16-0.1,0.25-0.1h1.27c0.1,0,0.18,0.03,0.24,0.1
		c0.07,0.06,0.1,0.15,0.1,0.25v3.61h4.13v-3.61c0-0.1,0.03-0.19,0.08-0.25c0.07-0.07,0.16-0.1,0.25-0.1h1.26
		c0.09,0,0.19,0.03,0.25,0.1c0.07,0.06,0.1,0.15,0.1,0.25v9.11c0,0.09-0.03,0.18-0.1,0.25c-0.07,0.06-0.16,0.09-0.25,0.08h-1.26
		c-0.09,0-0.18-0.03-0.24-0.1c-0.06-0.06-0.1-0.15-0.1-0.24v-3.75h-4.13v3.75c0,0.09-0.03,0.18-0.1,0.24
		c-0.06,0.07-0.15,0.1-0.24,0.1H638.84L638.84,186.88z M649.54,186.88c-0.09,0-0.18-0.03-0.24-0.1c-0.06-0.06-0.1-0.15-0.1-0.24
		v-9.11c0-0.1,0.03-0.19,0.08-0.25c0.07-0.07,0.16-0.1,0.25-0.1h6.16c0.09,0,0.19,0.03,0.25,0.1c0.07,0.06,0.1,0.15,0.1,0.25v0.92
		c0,0.09-0.03,0.18-0.1,0.25c-0.07,0.06-0.16,0.09-0.25,0.08h-4.61v2.48h4.3c0.09,0,0.19,0.03,0.25,0.1c0.07,0.06,0.1,0.15,0.1,0.24
		v0.87c0,0.09-0.03,0.18-0.1,0.25c-0.07,0.06-0.16,0.09-0.25,0.08h-4.3v2.56h4.72c0.09,0,0.19,0.03,0.25,0.1
		c0.07,0.07,0.1,0.15,0.1,0.25v0.92c0,0.09-0.03,0.18-0.1,0.25c-0.07,0.06-0.16,0.09-0.25,0.08L649.54,186.88L649.54,186.88z
		 M658.74,186.88c-0.09,0-0.18-0.03-0.24-0.1c-0.06-0.06-0.1-0.15-0.1-0.24v-9.11c0-0.1,0.03-0.19,0.08-0.25
		c0.07-0.07,0.16-0.1,0.25-0.1h3.42c2.74,0,4.14,1.27,4.2,3.81c0.02,0.54,0.03,0.9,0.03,1.09c0,0.18-0.01,0.54-0.03,1.08
		c-0.04,1.31-0.39,2.27-1.05,2.9c-0.66,0.62-1.69,0.92-3.08,0.92H658.74L658.74,186.88z M662.16,185.27c0.78,0,1.35-0.17,1.69-0.52
		c0.34-0.35,0.53-0.93,0.55-1.74c0.02-0.56,0.03-0.91,0.03-1.05c0-0.15-0.01-0.49-0.03-1.04c-0.02-0.76-0.21-1.33-0.59-1.69
		c-0.36-0.36-0.94-0.55-1.72-0.55h-1.74v6.58H662.16L662.16,185.27z M672.66,187.02c-1.26,0-2.24-0.32-2.94-0.97
		c-0.7-0.64-1.05-1.62-1.05-2.93v-5.7c0-0.1,0.03-0.19,0.08-0.25c0.07-0.07,0.16-0.1,0.25-0.1h1.27c0.1,0,0.18,0.03,0.24,0.1
		c0.07,0.06,0.1,0.15,0.1,0.25v5.7c0,0.75,0.18,1.31,0.53,1.69c0.35,0.37,0.86,0.56,1.51,0.56c0.65,0,1.15-0.19,1.5-0.56
		c0.35-0.38,0.53-0.95,0.53-1.69v-5.7c0-0.1,0.03-0.19,0.1-0.25c0.07-0.07,0.16-0.1,0.25-0.1h1.26c0.1,0,0.18,0.03,0.24,0.1
		c0.07,0.06,0.1,0.15,0.1,0.25v5.7c0,1.31-0.35,2.28-1.05,2.93C674.89,186.7,673.92,187.02,672.66,187.02L672.66,187.02z
		 M679.57,186.88c-0.09,0-0.18-0.03-0.24-0.1c-0.06-0.06-0.1-0.15-0.1-0.24v-9.13c0-0.1,0.03-0.18,0.1-0.24
		c0.06-0.06,0.15-0.1,0.24-0.1h1.3c0.1,0,0.18,0.03,0.24,0.1c0.07,0.06,0.1,0.13,0.1,0.24v7.8h4.44c0.09,0,0.19,0.03,0.25,0.1
		c0.07,0.07,0.1,0.16,0.1,0.25v0.98c0,0.09-0.03,0.19-0.1,0.25c-0.07,0.06-0.16,0.09-0.25,0.08H679.57L679.57,186.88z
		 M688.19,186.88c-0.09,0-0.18-0.03-0.24-0.1c-0.06-0.06-0.1-0.15-0.1-0.24v-9.11c0-0.1,0.03-0.19,0.08-0.25
		c0.07-0.07,0.16-0.1,0.25-0.1h6.16c0.09,0,0.19,0.03,0.25,0.1c0.07,0.07,0.1,0.16,0.1,0.25v0.92c0,0.09-0.03,0.19-0.1,0.25
		c-0.07,0.06-0.16,0.09-0.25,0.08h-4.61v2.48h4.3c0.09,0,0.19,0.03,0.25,0.1c0.07,0.06,0.1,0.13,0.1,0.24v0.87
		c0,0.09-0.03,0.19-0.1,0.25c-0.07,0.06-0.16,0.09-0.25,0.08h-4.3v2.56h4.72c0.09,0,0.19,0.03,0.25,0.1c0.07,0.07,0.1,0.16,0.1,0.25
		v0.92c0,0.09-0.03,0.19-0.1,0.25c-0.07,0.06-0.16,0.09-0.25,0.08L688.19,186.88L688.19,186.88z"/>
</g>
</svg>
